<svg width="45" height="45" viewBox="0 0 45 45" fill="none" xmlns="http://www.w3.org/2000/svg">
<path d="M41.6669 0H3.32188C1.48813 0 0 1.45312 0 3.2425V41.7531C0 43.545 1.48813 45 3.32188 45H41.6669C43.5019 45 45 43.545 45 41.7531V3.2425C45 1.45312 43.5019 0 41.6669 0ZM13.3463 38.3462H6.66875V16.8719H13.3463V38.3462ZM10.0075 13.9356C7.86812 13.9356 6.13875 12.2019 6.13875 10.0644C6.13875 7.93 7.86812 6.19625 10.0075 6.19625C12.1419 6.19625 13.8756 7.93 13.8756 10.0644C13.8756 12.2019 12.1419 13.9356 10.0075 13.9356ZM38.3438 38.3462H31.6769V27.9037C31.6769 25.4125 31.6281 22.2094 28.2075 22.2094C24.7337 22.2094 24.2044 24.9225 24.2044 27.7231V38.3469H17.5325V16.8719H23.9356V19.8044H24.0269C24.9181 18.1169 27.0956 16.3363 30.3431 16.3363C37.0969 16.3363 38.3444 20.7825 38.3444 26.5669V38.3462H38.3438Z" fill="#EC0100"/>
</svg>
